<svg width="321" height="218" viewBox="0 0 321 218" fill="none" xmlns="http://www.w3.org/2000/svg">
<path d="M131.08 4.42083C162.907 -5.25067 197.997 1.17283 223.3 21.4728C243.397 37.5388 255.026 60.4198 255.954 84.4028L255.998 87.4768L257.317 87.5203C290.667 89.0718 317.391 115.955 318.942 149.435L319 152.495C319 187.396 291.668 215.889 257.303 217.484L254.257 217.556H82.0265L78.8075 217.44C36.1775 215.845 1.711 182.655 0.0724999 141.127L0 137.995C0 98.1633 30.16 65.3498 69.368 59.4483L71.021 59.2163L72.036 56.5918C81.6495 33.1018 101.848 14.4548 127.556 5.58084L131.095 4.42083H131.08Z" fill="#4285F4"/>
<path d="M139.5 79.9H154.3L146.9 116H134.9L135.6 112.2C130.933 115.533 125.2 117.2 118.4 117.2C112.4 117.2 107.033 115.967 102.3 113.5C97.5667 111.033 93.8333 107.533 91.1 103C88.4333 98.4 87.1 93.0667 87.1 87C87.1 79 88.9333 71.8 92.6 65.4C96.2667 59 101.433 53.9667 108.1 50.3C114.767 46.6333 122.433 44.8 131.1 44.8C137.567 44.8 143.3 45.8667 148.3 48C153.3 50.0667 157.3 53.0667 160.3 57L148.7 66.4C146.367 63.6667 143.7 61.7 140.7 60.5C137.767 59.2333 134.3 58.6 130.3 58.6C124.967 58.6 120.267 59.8 116.2 62.2C112.133 64.5333 109 67.7667 106.8 71.9C104.6 76.0333 103.5 80.6667 103.5 85.8C103.5 91.2667 105.1 95.6 108.3 98.8C111.5 102 116 103.6 121.8 103.6C127 103.6 131.633 102.033 135.7 98.9L139.5 79.9ZM192.348 117.2C185.348 117.2 179.282 115.933 174.148 113.4C169.015 110.867 165.082 107.3 162.348 102.7C159.615 98.1 158.248 92.8 158.248 86.8C158.248 78.8667 160.048 71.7333 163.648 65.4C167.315 59 172.415 53.9667 178.948 50.3C185.548 46.6333 193.082 44.8 201.548 44.8C208.548 44.8 214.615 46.0667 219.748 48.6C224.882 51.1333 228.815 54.7 231.548 59.3C234.282 63.9 235.648 69.2 235.648 75.2C235.648 83.1333 233.815 90.3 230.148 96.7C226.548 103.033 221.448 108.033 214.848 111.7C208.315 115.367 200.815 117.2 192.348 117.2ZM193.748 103.4C198.882 103.4 203.382 102.167 207.248 99.7C211.115 97.2333 214.082 93.9333 216.148 89.8C218.215 85.6667 219.248 81.1 219.248 76.1C219.248 70.7667 217.582 66.5333 214.248 63.4C210.915 60.2 206.215 58.6 200.148 58.6C195.015 58.6 190.515 59.8333 186.648 62.3C182.782 64.7667 179.815 68.0667 177.748 72.2C175.682 76.3333 174.648 80.9 174.648 85.9C174.648 91.2333 176.315 95.5 179.648 98.7C182.982 101.833 187.682 103.4 193.748 103.4Z" fill="white"/>
<path d="M34.048 178L27.584 144.08H33.152L38.848 174.8H35.968L53.504 144.08H58.752L64.576 174.8H61.696L79.04 144.08H84.864L65.856 178H59.84L54.144 149.968H56L39.936 178H34.048ZM99.438 178.384C96.11 178.384 93.23 177.787 90.798 176.592C88.366 175.355 86.4887 173.648 85.166 171.472C83.8433 169.253 83.182 166.651 83.182 163.664C83.182 159.824 84.014 156.411 85.678 153.424C87.342 150.437 89.6033 148.091 92.462 146.384C95.3633 144.635 98.6487 143.76 102.318 143.76C105.39 143.76 108.057 144.357 110.318 145.552C112.579 146.704 114.329 148.368 115.566 150.544C116.846 152.72 117.486 155.344 117.486 158.416C117.486 159.184 117.443 159.973 117.358 160.784C117.273 161.552 117.166 162.277 117.038 162.96H87.662L88.43 158.48H114.094L111.598 160.016C111.982 157.627 111.811 155.621 111.086 154C110.361 152.336 109.209 151.077 107.63 150.224C106.094 149.328 104.238 148.88 102.062 148.88C99.502 148.88 97.2407 149.499 95.278 150.736C93.358 151.931 91.8647 153.616 90.798 155.792C89.7313 157.925 89.198 160.443 89.198 163.344C89.198 166.416 90.0727 168.805 91.822 170.512C93.614 172.176 96.3233 173.008 99.95 173.008C102.083 173.008 104.067 172.667 105.902 171.984C107.737 171.259 109.251 170.299 110.446 169.104L113.07 173.52C111.449 175.099 109.422 176.315 106.99 177.168C104.558 177.979 102.041 178.384 99.438 178.384ZM137.283 178.384C134.424 178.384 131.864 177.808 129.603 176.656C127.342 175.461 125.55 173.776 124.227 171.6C122.947 169.424 122.307 166.8 122.307 163.728C122.307 160.827 122.776 158.16 123.715 155.728C124.696 153.296 126.04 151.184 127.747 149.392C129.496 147.6 131.544 146.213 133.891 145.232C136.238 144.251 138.776 143.76 141.507 143.76C144.451 143.76 146.947 144.272 148.995 145.296C151.043 146.32 152.622 147.835 153.731 149.84C154.84 151.803 155.395 154.213 155.395 157.072C155.395 161.253 154.67 164.965 153.219 168.208C151.768 171.408 149.678 173.904 146.947 175.696C144.259 177.488 141.038 178.384 137.283 178.384ZM138.627 173.008C141.187 173.008 143.47 172.389 145.475 171.152C147.48 169.915 149.038 168.229 150.147 166.096C151.299 163.92 151.875 161.445 151.875 158.672C151.875 155.685 151 153.36 149.251 151.696C147.502 149.989 145.006 149.136 141.763 149.136C139.246 149.136 136.984 149.755 134.979 150.992C132.974 152.187 131.395 153.872 130.243 156.048C129.091 158.181 128.515 160.656 128.515 163.472C128.515 166.416 129.39 168.741 131.139 170.448C132.888 172.155 135.384 173.008 138.627 173.008ZM148.419 178L150.211 169.232L152.259 161.36L153.091 153.296L154.883 144.08H161.027L154.307 178H148.419ZM177.644 178.384C175.596 178.384 173.825 177.936 172.332 177.04C170.881 176.144 169.836 174.864 169.196 173.2C168.599 171.536 168.513 169.573 168.94 167.312L175.084 136.656H181.228L175.084 167.184C174.785 169.019 174.956 170.491 175.596 171.6C176.279 172.667 177.537 173.2 179.372 173.2C180.225 173.2 181.079 173.072 181.932 172.816C182.785 172.517 183.553 172.112 184.236 171.6L185.516 176.272C184.364 177.083 183.084 177.637 181.676 177.936C180.311 178.235 178.967 178.384 177.644 178.384ZM166.828 149.136L167.788 144.08H189.484L188.46 149.136H166.828ZM216.56 143.76C219.547 143.76 222.043 144.357 224.048 145.552C226.053 146.747 227.44 148.496 228.208 150.8C229.019 153.061 229.104 155.792 228.464 158.992L224.688 178H218.544L222.32 158.992C222.96 155.92 222.661 153.531 221.424 151.824C220.187 150.117 217.968 149.264 214.768 149.264C211.483 149.264 208.752 150.16 206.576 151.952C204.4 153.701 202.949 156.411 202.224 160.08L198.64 178H192.496L201.968 130.512H208.112L203.44 153.808L202.032 151.184C203.653 148.624 205.701 146.747 208.176 145.552C210.693 144.357 213.488 143.76 216.56 143.76ZM252.251 178.384C248.923 178.384 246.043 177.787 243.611 176.592C241.179 175.355 239.301 173.648 237.979 171.472C236.656 169.253 235.995 166.651 235.995 163.664C235.995 159.824 236.827 156.411 238.491 153.424C240.155 150.437 242.416 148.091 245.275 146.384C248.176 144.635 251.461 143.76 255.131 143.76C258.203 143.76 260.869 144.357 263.131 145.552C265.392 146.704 267.141 148.368 268.379 150.544C269.659 152.72 270.299 155.344 270.299 158.416C270.299 159.184 270.256 159.973 270.171 160.784C270.085 161.552 269.979 162.277 269.851 162.96H240.475L241.243 158.48H266.907L264.411 160.016C264.795 157.627 264.624 155.621 263.899 154C263.173 152.336 262.021 151.077 260.443 150.224C258.907 149.328 257.051 148.88 254.875 148.88C252.315 148.88 250.053 149.499 248.091 150.736C246.171 151.931 244.677 153.616 243.611 155.792C242.544 157.925 242.01 160.443 242.01 163.344C242.01 166.416 242.885 168.805 244.635 170.512C246.427 172.176 249.136 173.008 252.763 173.008C254.896 173.008 256.88 172.667 258.715 171.984C260.549 171.259 262.064 170.299 263.259 169.104L265.882 173.52C264.261 175.099 262.235 176.315 259.803 177.168C257.371 177.979 254.853 178.384 252.251 178.384ZM275.184 178L281.904 144.08H287.792L285.872 153.936L285.232 151.504C286.81 148.645 288.816 146.64 291.248 145.488C293.68 144.336 296.688 143.76 300.272 143.76L299.12 149.712C298.864 149.669 298.608 149.648 298.352 149.648C298.096 149.648 297.818 149.648 297.52 149.648C294.149 149.648 291.354 150.565 289.135 152.4C286.96 154.235 285.488 157.115 284.72 161.04L281.328 178H275.184Z" fill="white"/>
</svg>
